<?xml version="1.0" encoding="UTF-8"?>
<svg width="31px" height="32px" viewBox="0 0 31 32" version="1.1" xmlns="http://www.w3.org/2000/svg" xmlns:xlink="http://www.w3.org/1999/xlink">
    <title>5</title>
    <defs>
        <radialGradient cx="8.000362%" cy="9.1479994%" fx="8.000362%" fy="9.1479994%" r="94.4750264%" gradientTransform="translate(0.080004,0.091480),scale(0.976190,1.000000),rotate(4.011792),translate(-0.080004,-0.091480)" id="radialGradient-1">
            <stop stop-color="#F065E2" offset="0%"></stop>
            <stop stop-color="#3748FA" offset="100%"></stop>
        </radialGradient>
        <linearGradient x1="4.2868793%" y1="9.9419968%" x2="66.774565%" y2="55.2706935%" id="linearGradient-2">
            <stop stop-color="#FFFFFF" stop-opacity="0.29411766" offset="0%"></stop>
            <stop stop-color="#FFFFFF" stop-opacity="0" offset="100%"></stop>
        </linearGradient>
        <radialGradient cx="7.4415915%" cy="6.815813%" fx="7.4415915%" fy="6.815813%" r="101.287337%" gradientTransform="translate(0.074416,0.068158),scale(0.757143,1.000000),rotate(59.238471),translate(-0.074416,-0.068158)" id="radialGradient-3">
            <stop stop-color="#FFFFFF" stop-opacity="0.8" offset="0%"></stop>
            <stop stop-color="#5B72F6" stop-opacity="0.2509804" offset="100%"></stop>
        </radialGradient>
        <radialGradient cx="9.645859%" cy="9.700032%" fx="9.645859%" fy="9.700032%" r="60.0174212%" gradientTransform="translate(0.096459,0.097000),scale(0.757143,1.000000),rotate(64.683798),scale(1.000000,1.512724),translate(-0.096459,-0.097000)" id="radialGradient-4">
            <stop stop-color="#FFFFFF" stop-opacity="0.972549" offset="0%"></stop>
            <stop stop-color="#FFFFFF" stop-opacity="0" offset="100%"></stop>
        </radialGradient>
    </defs>
    <g id="页面-1" stroke="none" stroke-width="1" fill="none" fill-rule="evenodd">
        <g id="左侧导航台" transform="translate(-343.000000, -77.000000)">
            <g id="5" transform="translate(343.000000, 77.000000)">
                <path d="M25.6208503,6.12965517 C26.3951154,6.12965517 27.0960809,6.44348812 27.6034802,6.95088736 C28.1087912,7.45619837 28.4221259,8.15348569 28.4246964,8.92396142 L28.4246964,8.92396142 L27.2693484,26.7883253 C27.2213886,27.525708 26.8913714,28.1811784 26.3886089,28.6523031 C25.8858465,29.1234278 25.2103389,29.4102069 24.4713982,29.4102069 L24.4713982,29.4102069 L8.93218826,29.4102069 C8.19324756,29.4102069 7.51773992,29.1234279 7.0149775,28.6523031 C6.51221508,28.1811784 6.18219787,27.525708 6.13423801,26.7883254 L6.13423801,26.7883254 L4.9847857,9.11549776 C4.93453316,8.34286514 5.20220928,7.62300871 5.67560669,7.08374731 C6.14705573,6.54670535 6.82253617,6.18877492 7.5912204,6.13620313 L7.5912204,6.13620313 Z" id="矩形" stroke="url(#linearGradient-2)" stroke-width="0.606896552" fill="url(#radialGradient-1)"></path>
                <path d="M12.057387,0.776827586 L26.9947586,0.776827586 L26.9947586,0.776827586 L23.3897931,15.3423448 L6.02041379,15.3423448 L9.04108721,3.13760374 C9.38430298,1.75087337 10.6288149,0.776827586 12.057387,0.776827586 Z" id="矩形" fill="#FFFFFF"></path>
                <polygon id="矩形" fill="#FFDAFE" points="12.9437298 4.27255172 23.0424882 4.27255172 22.5302387 6.21462069 12.4314806 6.21462069"></polygon>
                <polygon id="矩形备份-12" fill="#FFDAFE" points="11.9704561 7.96248276 18.7676973 7.96248276 18.2554479 9.90455172 11.4582069 9.90455172"></polygon>
                <path d="M12.4384008,9.43117241 C13.2155798,9.43117241 13.9578955,9.75374743 14.4881789,10.3219082 L14.4881789,10.3219082 L18.0833186,14.1738434 C18.7283819,14.8649827 19.6313721,15.2573791 20.5767716,15.2573791 L20.5767716,15.2573791 L27.3831724,15.2573791 C27.9752963,15.2573791 28.5113639,15.4973848 28.8994005,15.8854214 C29.2841129,16.2701338 29.5233198,16.8003518 29.5273899,17.3864443 L29.5273899,17.3864443 L28.5394774,26.8998665 C28.4643713,27.6133747 28.1259824,28.2409598 27.6270075,28.6901678 C27.1280326,29.1393759 26.4684716,29.4102069 25.7510213,29.4102069 L25.7510213,29.4102069 L7.34839199,29.4102069 C6.61505412,29.4102069 5.9436711,29.1276235 5.44182523,28.6622256 C4.93997936,28.1968277 4.60767064,27.5486152 4.55248134,26.817357 L4.55248134,26.817357 L3.420309,11.8160734 C3.37421529,11.2053318 3.58003722,10.6337259 3.95006798,10.203282 C4.31789727,9.7753989 4.84798731,9.48700316 5.4541874,9.43831083 L5.4541874,9.43831083 Z" id="矩形" stroke="url(#radialGradient-4)" stroke-width="0.606896552" fill="url(#radialGradient-3)"></path>
                <rect id="矩形" fill="#FFFFFF" x="5.8262069" y="11.8466207" width="7.37986207" height="1.94206897"></rect>
                <g id="编组-7" transform="translate(0.776828, 19.614897)">
                    <g id="编组-3" transform="translate(0.194207, 0.776828)">
                        <path d="M3.73443141,-1.32752851e-13 L6.75274101,-1.324511e-13 C8.05128416,-1.32689638e-13 8.52216729,0.135205304 8.99689526,0.3890926 C9.47162323,0.642979897 9.84419252,1.01554919 10.0980798,1.49027715 C10.3519671,1.96500512 10.4871724,2.43588825 10.4871724,3.73443141 L10.4871724,6.75274101 C10.4871724,8.05128416 10.3519671,8.52216729 10.0980798,8.99689526 C9.84419252,9.47162323 9.47162323,9.84419252 8.99689526,10.0980798 C8.52216729,10.3519671 8.05128416,10.4871724 6.75274101,10.4871724 L3.73443141,10.4871724 C2.43588825,10.4871724 1.96500512,10.3519671 1.49027715,10.0980798 C1.01554919,9.84419252 0.642979897,9.47162323 0.3890926,8.99689526 C0.135205304,8.52216729 5.29819505e-13,8.05128416 5.29660479e-13,6.75274101 L5.29861646e-13,3.73443141 C5.29702621e-13,2.43588825 0.135205304,1.96500512 0.3890926,1.49027715 C0.642979897,1.01554919 1.01554919,0.642979897 1.49027715,0.3890926 C1.96500512,0.135205304 2.43588825,-1.32514312e-13 3.73443141,-1.32752851e-13 Z" id="矩形" fill="#EA66E2"></path>
                        <rect id="矩形" fill="#FFFFFF" x="4.66096552" y="2.91310345" width="1.16524138" height="4.66096552"></rect>
                        <rect id="矩形备份-39" fill="#FFFFFF" transform="translate(5.243586, 5.243586) rotate(90.000000) translate(-5.243586, -5.243586) " x="4.66096552" y="2.91310345" width="1.16524138" height="4.66096552"></rect>
                    </g>
                </g>
            </g>
        </g>
    </g>
</svg>