<?xml version="1.0" encoding="UTF-8"?>
<svg width="22px" height="25px" viewBox="0 0 22 25" version="1.1" xmlns="http://www.w3.org/2000/svg" xmlns:xlink="http://www.w3.org/1999/xlink">
    <title>联盟链</title>
    <g id="页面-1" stroke="none" stroke-width="1" fill="none" fill-rule="evenodd">
        <g id="左侧导航台" transform="translate(-819.000000, -217.000000)">
            <g id="联盟链" transform="translate(809.000000, 212.000000)">
                <g id="联盟链" transform="translate(3.000000, 0.000000)">
                    <rect id="矩形" fill="#D8D8D8" opacity="0" x="0" y="0" width="36" height="36"></rect>
                    <g id="联盟合作" transform="translate(7.200000, 5.400000)" fill="#9297BA" fill-rule="nonzero">
                        <path d="M20.6970199,5.7442053 L13.9777525,9.62210265 C12.0024834,10.7620033 9.56622517,10.7620033 7.59095613,9.62210265 L0.871688742,5.7442053 L10.7843543,0.0195571192 L20.6970199,5.7442053 Z M0.00279387417,7.47640728 L0.00279387417,18.9229098 L9.91825331,24.6475579 L9.91825331,16.8861755 C9.91825331,14.6035803 8.70012417,12.4969992 6.72485513,11.3543046 L0.00279387417,7.47640728 L0.00279387417,7.47640728 Z M11.6504553,16.8861755 L11.6504553,24.6447641 L21.5631209,18.9201159 L21.5631209,7.47640728 L14.8438535,11.3570985 C12.8657906,12.4969992 11.6504553,14.6063742 11.6504553,16.8861755 Z" id="形状"></path>
                    </g>
                </g>
            </g>
        </g>
    </g>
</svg>