<?xml version="1.0" encoding="UTF-8"?>
<svg width="21px" height="23px" viewBox="0 0 21 23" version="1.1" xmlns="http://www.w3.org/2000/svg" xmlns:xlink="http://www.w3.org/1999/xlink">
    <title>联盟</title>
    <g id="页面-1" stroke="none" stroke-width="1" fill="none" fill-rule="evenodd">
        <g id="左侧导航台" transform="translate(-820.000000, -442.000000)">
            <g id="联盟" transform="translate(812.000000, 436.000000)">
                <rect id="矩形" fill="#D8D8D8" opacity="0" x="0" y="0" width="36" height="36"></rect>
                <g id="BTCD-区块链" transform="translate(18.100000, 17.300000) rotate(-90.000000) translate(-18.100000, -17.300000) translate(6.600000, 7.300000)" fill="#9297BA" fill-rule="nonzero">
                    <path d="M22.3707497,10.0644304 C22.3707497,15.0458059 18.719181,19.1736426 13.9469603,19.917744 C13.9295007,17.7630179 13.4220934,15.7251088 12.5314757,13.9087743 C14.5938641,13.838576 16.2442429,12.1440984 16.2442429,10.0644304 C16.2442429,7.99808203 14.6147437,6.31188418 12.5705347,6.22188647 C13.4480128,4.40285196 13.9417405,2.3645829 13.9473203,0.211116727 C18.719541,0.955578129 22.3707497,5.08395491 22.3707497,10.0644304" id="路径"></path>
                    <path d="M11.96179,0.172597676 C11.96179,3.56893277 10.5455854,6.63425613 8.27098221,8.80986175 C7.77264809,9.28722929 7.23395346,9.72059391 6.66092246,10.1051094 C5.42317537,10.9364125 4.04010275,11.5274744 2.58384442,11.8474658 C1.73778347,12.0330492 0.874104333,12.1264117 0.00792878906,12.1259208 L0.00792878906,6.0436909 C3.25054772,6.0436909 5.87902201,3.41521661 5.87902201,0.172597676 L11.96179,0.172597676 Z M11.96143,19.9884823 L5.93248068,19.9884823 C5.90620134,16.7386635 3.2636874,14.1123492 0.00792878906,14.1123492 C1.08214193,14.1123492 2.12809577,13.9908522 3.13229071,13.760638 C4.98918422,13.3351715 6.73846677,12.5315763 8.27098221,11.399997 C10.5346056,13.5655228 11.9481103,16.6117667 11.96143,19.9884823" id="形状"></path>
                </g>
            </g>
        </g>
    </g>
</svg>