<?xml version="1.0" encoding="UTF-8"?>
<svg width="37px" height="35px" viewBox="0 0 37 35" version="1.1" xmlns="http://www.w3.org/2000/svg" xmlns:xlink="http://www.w3.org/1999/xlink">
    <title>4</title>
    <defs>
        <radialGradient cx="19.6926%" cy="14.886405%" fx="19.6926%" fy="14.886405%" r="86.4844936%" gradientTransform="translate(0.196926,0.148864),scale(0.852941,1.000000),rotate(47.785794),scale(1.000000,0.995707),translate(-0.196926,-0.148864)" id="radialGradient-1">
            <stop stop-color="#46FF7E" offset="0%"></stop>
            <stop stop-color="#2D62FF" offset="100%"></stop>
        </radialGradient>
        <linearGradient x1="10.698536%" y1="16.3254796%" x2="56.97198%" y2="57.5980276%" id="linearGradient-2">
            <stop stop-color="#FFFFFF" stop-opacity="0.6" offset="0%"></stop>
            <stop stop-color="#FFFFFF" stop-opacity="0" offset="100%"></stop>
        </linearGradient>
        <radialGradient cx="44.480255%" cy="16.26992%" fx="44.480255%" fy="16.26992%" r="45.3260209%" gradientTransform="translate(0.444803,0.162699),rotate(38.525442),scale(1.000000,2.330158),translate(-0.444803,-0.162699)" id="radialGradient-3">
            <stop stop-color="#CCE4FF" stop-opacity="0.8509804" offset="0%"></stop>
            <stop stop-color="#087AFF" stop-opacity="0.36862746" offset="100%"></stop>
        </radialGradient>
        <radialGradient cx="50%" cy="9.19869%" fx="50%" fy="9.19869%" r="63.5415009%" gradientTransform="translate(0.500000,0.091987),rotate(53.961390),scale(1.000000,0.957162),translate(-0.500000,-0.091987)" id="radialGradient-4">
            <stop stop-color="#FFFFFF" offset="0%"></stop>
            <stop stop-color="#FFFFFF" stop-opacity="0" offset="100%"></stop>
        </radialGradient>
    </defs>
    <g id="页面-1" stroke="none" stroke-width="1" fill="none" fill-rule="evenodd">
        <g id="左侧导航台" transform="translate(-337.000000, -143.000000)">
            <g id="4" transform="translate(337.000000, 143.000000)">
                <path d="M30.0466755,11.65 C32.1155212,11.65 32.8692482,11.8565731 33.62653,12.2615718 C34.3645407,12.6562642 34.9437358,13.2354593 35.3384282,13.97347 C35.7434269,14.7307518 35.95,15.4844788 35.95,17.5533245 L35.95,17.5533245 L35.95,28.4466755 C35.95,30.5155212 35.7434269,31.2692482 35.3384282,32.02653 C34.9437358,32.7645407 34.3645407,33.3437358 33.62653,33.7384282 C32.8692482,34.1434269 32.1155212,34.35 30.0466755,34.35 L30.0466755,34.35 L15.1533245,34.35 C13.0844788,34.35 12.3307518,34.1434269 11.57347,33.7384282 C10.8354593,33.3437358 10.2562642,32.7645407 9.86157179,32.02653 C9.45657308,31.2692482 9.25,30.5155212 9.25,28.4466755 L9.25,28.4466755 L9.25,17.5533245 C9.25,15.4844788 9.45657308,14.7307518 9.86157179,13.97347 C10.2562642,13.2354593 10.8354593,12.6562642 11.57347,12.2615718 C12.3307518,11.8565731 13.0844788,11.65 15.1533245,11.65 L15.1533245,11.65 Z" id="矩形" stroke="url(#linearGradient-2)" stroke-width="0.5" fill="url(#radialGradient-1)"></path>
                <g id="编组-2" transform="translate(27.204054, 21.460948) rotate(-45.000000) translate(-27.204054, -21.460948) translate(19.204054, 19.460948)" fill="#FFFFFF">
                    <circle id="椭圆形" cx="2.18164805" cy="2.24449421" r="1.6"></circle>
                    <rect id="矩形" x="4.58165405" y="0.644494208" width="11.2" height="3.2"></rect>
                </g>
                <path d="M11.8493708,4.63375674 C14.2569126,5.32158503 15.9749549,6.55947573 17.554765,8.20984897 C19.140893,9.86682203 20.3309778,11.5229405 21.1225954,13.1797513 C21.1642436,13.2669679 21.1666086,13.3628134 21.1367583,13.4472709 C21.106914,13.5317118 21.0448647,13.6047696 20.9623224,13.6442662 L20.9623224,13.6442662 L4.49677677,21.1005984 Z" id="路径" stroke="url(#radialGradient-4)" stroke-width="0.5" fill="url(#radialGradient-3)" transform="translate(12.800000, 12.800000) rotate(-60.000000) translate(-12.800000, -12.800000) "></path>
            </g>
        </g>
    </g>
</svg>