<?xml version="1.0" encoding="UTF-8"?>
<svg width="20px" height="20px" viewBox="0 0 20 20" version="1.1" xmlns="http://www.w3.org/2000/svg" xmlns:xlink="http://www.w3.org/1999/xlink">
    <g id="页面-1" stroke="none" stroke-width="1" fill="none" fill-rule="evenodd">
        <g id="基础框架" transform="translate(-319.000000, -21.000000)">
            <g id="编组" transform="translate(317.000000, 19.000000)">
                <g transform="translate(2.000000, 2.000000)">
                    <rect id="矩形" fill="#FFFFFF" opacity="0" x="0" y="0" width="20" height="20"></rect>
                    <g id="企业" fill="#000000" fill-opacity="0.45" fill-rule="nonzero">
                        <path d="M19.0116631,16.1640625 C19.0116631,18.2530939 17.3022614,19.9624955 15.2132301,19.9624955 L3.81721865,19.9624955 C1.7281873,19.9624955 0.018785607,18.2530938 0.018785607,16.1640625 L0.018785607,0.968905799 C0.018785607,0.446826022 0.446136043,0.019475611 0.96821582,0.019475611 L12.3642272,0.019475611 C12.886307,0.019475611 13.3136574,0.446826047 13.3136574,0.968905799 L13.3136574,3.81790865 L18.0622329,3.81790865 C18.5843127,3.81790865 19.0116631,4.24525909 19.0116631,4.76805111 L19.0116631,16.1640625 Z M13.3136574,16.1640625 C13.3136574,17.2082221 14.1683582,18.0629229 15.2132301,18.0629229 C16.2581019,18.0629229 17.1128027,17.2082221 17.1128027,16.1640625 L17.1128027,5.7174813 L13.3136574,5.7174813 L13.3136574,16.1640625 L13.3136574,16.1640625 Z M3.81721865,18.0629229 L11.9368768,18.0629229 C11.5934191,17.4892196 11.4129171,16.8327142 11.414797,16.1640625 L11.414797,1.91904825 L1.91764601,1.91904825 L1.91764601,16.1640625 C1.91764601,17.2082221 2.77234685,18.0629229 3.81721865,18.0629229 Z" id="形状"></path>
                        <path d="M7.14129274,7.61705396 L4.29228989,7.61705396 C3.76949787,7.61705396 3.34214744,8.0444044 3.34214744,8.56648415 C3.34214744,9.0885639 3.76949787,9.51591436 4.29228989,9.51591436 L7.14129274,9.51591436 C7.66337252,9.51591436 8.09072293,9.08856393 8.09072293,8.56648415 C8.09072293,8.04440437 7.6633725,7.61705396 7.14129274,7.61705396 M9.04015315,3.81790865 L4.29228989,3.81790865 C3.76949787,3.81790865 3.34214744,4.24525909 3.34214744,4.76805111 C3.34214744,5.29013088 3.76949787,5.7174813 4.29228989,5.7174813 L9.04015315,5.7174813 C9.56294516,5.7174813 9.99029557,5.29013086 9.99029557,4.76805111 C9.99029557,4.24525909 9.56294514,3.81790865 9.04015315,3.81790865" id="形状"></path>
                    </g>
                </g>
            </g>
        </g>
    </g>
</svg>
