<?xml version="1.0" encoding="UTF-8"?>
<svg width="30px" height="21px" viewBox="0 0 30 21" version="1.1" xmlns="http://www.w3.org/2000/svg" xmlns:xlink="http://www.w3.org/1999/xlink">
    <title>平行链 选中</title>
    <defs>
        <linearGradient x1="34.4519291%" y1="0%" x2="76.8757129%" y2="50%" id="linearGradient-1">
            <stop stop-color="#36BBE8" offset="0%"></stop>
            <stop stop-color="#4E67FE" offset="100%"></stop>
        </linearGradient>
    </defs>
    <g id="页面-1" stroke="none" stroke-width="1" fill="none" fill-rule="evenodd">
        <g id="左侧导航台" transform="translate(-913.000000, -331.000000)">
            <g id="平行链备份-2" transform="translate(907.000000, 323.000000)">
                <g id="编组" transform="translate(3.000000, 0.000000)">
                    <g id="编组-12" transform="translate(0.000000, 0.100000)">
                        <rect id="矩形" fill-opacity="0" fill="#D8D8D8" x="0" y="0" width="36" height="36"></rect>
                        <g id="编组-10" transform="translate(18.408494, 18.921891) rotate(-330.000000) translate(-18.408494, -18.921891) translate(7.408494, 4.421891)">
                            <g id="编组-9" transform="translate(0.000000, 0.600000)" fill="url(#linearGradient-1)">
                                <path d="M17.4,-8.18545232e-12 C19.3882251,-8.18545232e-12 21,1.6117749 21,3.6 C21,5.30409057 19.8159811,6.73163871 18.2257336,7.10485418 L18.2257336,14.1201458 C19.8159811,14.4933613 21,15.9209094 21,17.625 C21,19.6132251 19.3882251,21.225 17.4,21.225 C15.4117749,21.225 13.8,19.6132251 13.8,17.625 C13.8,17.2401822 13.8603787,16.8694667 13.9721793,16.52181 L6.98091673,12.4863165 C6.48814669,13.0849941 5.80581569,13.5217766 5.02573357,13.7048542 L5.02573357,20.7201458 C6.61598111,21.0933613 7.8,22.5209094 7.8,24.225 C7.8,26.2132251 6.1882251,27.825 4.2,27.825 C2.2117749,27.825 0.6,26.2132251 0.6,24.225 C0.6,22.5205511 1.78451685,21.092761 3.37526958,20.7199105 L3.37526958,13.7050895 C1.78451685,13.332239 0.6,11.9044489 0.6,10.2 C0.6,8.2117749 2.2117749,6.6 4.2,6.6 C6.1882251,6.6 7.8,8.2117749 7.8,10.2 C7.8,10.4755352 7.76904523,10.7438406 7.71042356,11.0016282 L14.8255595,15.1086005 C15.2953296,14.6280634 15.8985398,14.2785267 16.5752696,14.1199105 L16.5752696,7.10508946 C14.9845168,6.73223901 13.8,5.30444887 13.8,3.6 C13.8,1.6117749 15.4117749,-8.18545232e-12 17.4,-8.18545232e-12 Z" id="形状结合"></path>
                            </g>
                            <g id="编组-9备份" transform="translate(13.200000, -0.000000)"></g>
                        </g>
                    </g>
                </g>
            </g>
        </g>
    </g>
</svg>