<?xml version="1.0" encoding="UTF-8"?>
<svg width="24px" height="22px" viewBox="0 0 24 22" version="1.1" xmlns="http://www.w3.org/2000/svg" xmlns:xlink="http://www.w3.org/1999/xlink">
    <title>Message Copy 16</title>
    <defs>
        <linearGradient x1="-28.613937%" y1="14.266297%" x2="105.60031%" y2="110.41619%" id="linearGradient-1">
            <stop stop-color="#AB62FF" offset="0%"></stop>
            <stop stop-color="#71268C" offset="100%"></stop>
        </linearGradient>
        <path d="M15.5184,4.4096 C19.8737896,4.4096 23.4048,7.94060989 23.4048,12.296 C23.4048,16.6513896 19.8737896,20.1824 15.5184,20.1824 C11.1630099,20.1824 7.632,16.6513896 7.632,12.296 C7.632,7.94060989 11.1630099,4.4096 15.5184,4.4096 Z" id="path-2"></path>
        <filter x="-6.3%" y="-6.3%" width="112.7%" height="112.7%" filterUnits="objectBoundingBox" id="filter-3">
            <feGaussianBlur stdDeviation="0.5" in="SourceAlpha" result="shadowBlurInner1"></feGaussianBlur>
            <feOffset dx="1" dy="1" in="shadowBlurInner1" result="shadowOffsetInner1"></feOffset>
            <feComposite in="shadowOffsetInner1" in2="SourceAlpha" operator="arithmetic" k2="-1" k3="1" result="shadowInnerInner1"></feComposite>
            <feColorMatrix values="0 0 0 0 0.92156863   0 0 0 0 0.8627451   0 0 0 0 1  0 0 0 0.45490196 0" type="matrix" in="shadowInnerInner1"></feColorMatrix>
        </filter>
        <path d="M10.0912,0 C15.6642254,0 20.1824,4.51817395 20.1824,10.0912 C20.1824,15.6642254 15.6642254,20.1824 10.0912,20.1824 C4.51817395,20.1824 0,15.6642254 0,10.0912 C0,4.51817395 4.51817395,0 10.0912,0 Z" id="path-4"></path>
        <filter x="-11.1%" y="-11.1%" width="122.3%" height="122.3%" filterUnits="objectBoundingBox" id="filter-5">
            <feGaussianBlur stdDeviation="1" in="SourceAlpha" result="shadowBlurInner1"></feGaussianBlur>
            <feOffset dx="0" dy="-2" in="shadowBlurInner1" result="shadowOffsetInner1"></feOffset>
            <feComposite in="shadowOffsetInner1" in2="SourceAlpha" operator="arithmetic" k2="-1" k3="1" result="shadowInnerInner1"></feComposite>
            <feColorMatrix values="0 0 0 0 0.827451   0 0 0 0 0.56078434   0 0 0 0 1  0 0 0 0.3019608 0" type="matrix" in="shadowInnerInner1"></feColorMatrix>
        </filter>
        <path d="M12.9936811,7.99828054 L11.8461179,11.4413216 C11.782417,11.6324438 11.6324438,11.782417 11.4413216,11.8461179 L7.99837353,12.9936501 C7.66304638,13.1054144 7.30060715,12.9241809 7.18884284,12.5888538 C7.14505448,12.4574753 7.14506101,12.3154381 7.18886143,12.1840637 L8.33677613,8.74102255 C8.40048588,8.54993234 8.55044117,8.39998623 8.74153528,8.3362882 L12.1841318,7.18875604 C12.5194556,7.07698147 12.8819004,7.25820386 12.9936749,7.59352759 C13.0374631,7.72489199 13.0374652,7.8669148 12.9936811,7.99828054 Z" id="path-6"></path>
        <filter x="-85.1%" y="-70.0%" width="300.4%" height="300.4%" filterUnits="objectBoundingBox" id="filter-7">
            <feOffset dx="1" dy="2" in="SourceAlpha" result="shadowOffsetOuter1"></feOffset>
            <feGaussianBlur stdDeviation="2" in="shadowOffsetOuter1" result="shadowBlurOuter1"></feGaussianBlur>
            <feColorMatrix values="0 0 0 0 0.40784314   0 0 0 0 0.15294118   0 0 0 0 0.59607846  0 0 0 0.42745098 0" type="matrix" in="shadowBlurOuter1"></feColorMatrix>
        </filter>
    </defs>
    <g id="页面-1" stroke="none" stroke-width="1" fill="none" fill-rule="evenodd">
        <g id="基础框架" transform="translate(-106.000000, -335.000000)">
            <g id="资源管理" transform="translate(100.000000, 326.000000)">
                <g id="编组" transform="translate(6.000000, 8.000000)">
                    <g id="Group-2" transform="translate(0.320000, 1.920000)">
                        <g id="Stroke-1-Copy">
                            <use fill="url(#linearGradient-1)" fill-rule="evenodd" xlink:href="#path-2"></use>
                            <use fill="black" fill-opacity="1" filter="url(#filter-3)" xlink:href="#path-2"></use>
                        </g>
                        <g id="Group">
                            <g id="Stroke-1">
                                <use fill="#EEE6FF" fill-rule="evenodd" style="mix-blend-mode: multiply;" xlink:href="#path-4"></use>
                                <use fill="black" fill-opacity="1" filter="url(#filter-5)" xlink:href="#path-4"></use>
                                <use stroke-opacity="0.27450982" stroke="#FFFFFF" stroke-width="0.5" xlink:href="#path-4"></use>
                            </g>
                            <g id="Stroke-3">
                                <use fill="black" fill-opacity="1" filter="url(#filter-7)" xlink:href="#path-6"></use>
                                <use fill="#FFFFFF" fill-rule="evenodd" xlink:href="#path-6"></use>
                            </g>
                        </g>
                    </g>
                </g>
            </g>
        </g>
    </g>
</svg>