<?xml version="1.0" encoding="UTF-8"?>
<svg width="20px" height="21px" viewBox="0 0 20 21" version="1.1" xmlns="http://www.w3.org/2000/svg" xmlns:xlink="http://www.w3.org/1999/xlink">
    <title>安全预警</title>
    <g id="页面-1" stroke="none" stroke-width="1" fill="none" fill-rule="evenodd">
        <g id="基础框架" transform="translate(-1245.000000, -19.000000)">
            <g id="编组" transform="translate(1243.000000, 18.000000)">
                <rect id="矩形" fill="#FFFFFF" opacity="0" x="0" y="0" width="24" height="24"></rect>
                <g id="硬件-(1)" transform="translate(3.000000, 2.000000)" fill="#8D8D8D" fill-rule="nonzero" stroke="#8D8D8D" stroke-width="0.5">
                    <path d="M9.375,3.75 C6.26757812,3.75 3.75,6.26757812 3.75,9.375 C3.75,11.2363281 4.65429688,12.8847656 6.04492188,13.9082031 L6.05078125,13.8984375 C6.14257812,13.953125 6.25195312,13.984375 6.3671875,13.984375 C6.71289062,13.984375 6.9921875,13.7050781 6.9921875,13.359375 C6.9921875,13.1230469 6.859375,12.9160156 6.66601562,12.8105469 C5.65039062,12.0097656 5,10.7675781 5,9.375 C5,6.95898438 6.95898438,5 9.375,5 C11.7910156,5 13.75,6.95898438 13.75,9.375 C13.75,10.7734375 13.09375,12.0175781 12.0742188,12.8183594 L12.078125,12.8242187 C11.8984375,12.9335937 11.7773438,13.1328125 11.7773438,13.359375 C11.7773438,13.7050781 12.0566406,13.984375 12.4023438,13.984375 C12.5117188,13.984375 12.6132813,13.9570312 12.703125,13.90625 L12.7050781,13.9082031 C12.7089844,13.9042969 12.7148438,13.9023437 12.71875,13.8984375 C12.7617188,13.8730469 12.8027344,13.8417969 12.8378906,13.8085937 C14.1542969,12.7792969 15,11.1757812 15,9.375 C15,6.26757812 12.4824219,3.75 9.375,3.75 Z" id="路径"></path>
                    <path d="M9.375,0 C4.19726562,0 0,4.19726562 0,9.375 C0,12.625 1.65234375,15.4863281 4.1640625,17.1699219 L4.16601562,17.1660156 C4.25585938,17.2167969 4.36132812,17.2460938 4.47265625,17.2460938 C4.81835938,17.2460938 5.09765625,16.9667969 5.09765625,16.6210938 C5.09765625,16.3886719 4.97070312,16.1875 4.78320312,16.078125 C2.65039062,14.6152344 1.25,12.1582031 1.25,9.375 C1.25,4.88671875 4.88671875,1.25 9.375,1.25 C13.8632812,1.25 17.5,4.88671875 17.5,9.375 C17.5,12.1582031 16.0996094,14.6152344 13.9667969,16.078125 C13.7792969,16.1855469 13.6523438,16.3886719 13.6523438,16.6210938 C13.6523438,16.9667969 13.9316406,17.2460938 14.2773438,17.2460938 C14.3886719,17.2460938 14.4941406,17.2167969 14.5839844,17.1660156 L14.5859375,17.1699219 C17.0976562,15.4863281 18.75,12.625 18.75,9.375 C18.75,4.19726562 14.5527344,0 9.375,0 Z" id="路径"></path>
                    <path d="M9.921875,13.1835937 C9.68164063,12.7675781 9.08007813,12.7675781 8.83984375,13.1835937 L5.68554688,18.6484375 C5.4453125,19.0644531 5.74609375,19.5859375 6.2265625,19.5859375 L12.5371094,19.5859375 C13.0175781,19.5859375 13.3183594,19.0644531 13.078125,18.6484375 L9.921875,13.1835937 Z M7.13476563,18.3554687 L9.38085938,14.4648437 L11.6269531,18.3554687 L7.13476563,18.3554687 L7.13476563,18.3554687 Z" id="形状"></path>
                </g>
            </g>
        </g>
    </g>
</svg>