<?xml version="1.0" encoding="UTF-8"?>
<svg width="34px" height="32px" viewBox="0 0 34 32" version="1.1" xmlns="http://www.w3.org/2000/svg" xmlns:xlink="http://www.w3.org/1999/xlink">
    <title>皇冠</title>
    <defs>
        <linearGradient x1="0%" y1="37.5023067%" x2="111.370948%" y2="29.5468566%" id="linearGradient-1">
            <stop stop-color="#FF7600" offset="0%"></stop>
            <stop stop-color="#FF5A00" offset="100%"></stop>
        </linearGradient>
        <linearGradient x1="50%" y1="84.3076124%" x2="50%" y2="-4.25357736%" id="linearGradient-2">
            <stop stop-color="#FFF5ED" offset="0%"></stop>
            <stop stop-color="#FFCAAE" offset="100%"></stop>
        </linearGradient>
    </defs>
    <g id="页面-1" stroke="none" stroke-width="1" fill="none" fill-rule="evenodd">
        <g id="首页" transform="translate(-468.000000, -344.000000)">
            <g id="编组-3备份-5" transform="translate(431.000000, 310.000000)">
                <g id="皇冠" transform="translate(37.000000, 34.000000)">
                    <path d="M13.7007761,3.04938041 L20.1932121,3.66638632 C21.5618543,3.79645464 22.62124,4.92227989 22.6679201,6.29629588 L22.870552,12.2607097 C22.9218401,13.7703611 21.7396031,15.0357526 20.2299516,15.0870407 C20.1286479,15.0904824 20.0272311,15.0882898 19.9261707,15.0804731 L13.8355986,14.6093898 C12.5135583,14.5071348 11.455301,13.4713024 11.3247581,12.1517551 L10.7202623,6.04141875 C10.5715522,4.53823439 11.6695706,3.19910936 13.1727549,3.05039927 C13.3483172,3.03303088 13.5251481,3.03268967 13.7007761,3.04938041 Z" id="矩形" fill="url(#linearGradient-1)" transform="translate(16.683761, 9.025641) rotate(-315.000000) translate(-16.683761, -9.025641) "></path>
                    <path d="M2.0720414,4.64957265 L2.10791353,4.64957265 C3.48977436,4.64957265 4.84824548,5.006223 6.05189672,5.68501827 L15.6229072,11.082559 C16.2096755,11.4134652 16.9271752,11.4116455 17.5122576,11.0777675 L26.8830998,5.73028426 C28.1241883,5.0220555 29.5284554,4.64957265 30.9574021,4.64957265 L31.0965995,4.64957265 C32.1539651,4.64957265 33.0111294,5.50673689 33.0111294,6.56410256 C33.0111294,6.60498944 33.0098196,6.64586583 33.0072021,6.68666884 L31.7446258,26.3681143 C31.5414556,29.5351967 28.9134672,32 25.7398748,32 L7.72432743,32 C4.58528512,32 1.9736542,29.5868988 1.72599047,26.4576418 L0.163479638,6.71515488 C0.0800557461,5.66108533 0.866919525,4.7389647 1.92098908,4.6555408 C1.97124165,4.65156359 2.02163169,4.64957265 2.0720414,4.64957265 Z" id="矩形" fill="url(#linearGradient-2)"></path>
                    <path d="M14.8965262,17.1773013 L18.8580814,17.553786 C19.8161309,17.6448339 20.5577009,18.4329115 20.5903769,19.3947227 L20.7136599,23.0235224 C20.7495616,24.0802784 19.9219956,24.9660525 18.8652396,25.0019542 C18.794327,25.0043633 18.7233353,25.0028285 18.652593,24.9973568 L14.9355555,24.7098576 C14.0101273,24.6382792 13.2693472,23.9131965 13.1779672,22.9895134 L12.8101665,19.2717282 C12.7060695,18.2194991 13.4746823,17.2821116 14.5269113,17.1780145 C14.6498049,17.1658567 14.7735866,17.1656178 14.8965262,17.1773013 Z" id="矩形备份" fill="#FFFFFF" transform="translate(16.683761, 21.059829) rotate(-315.000000) translate(-16.683761, -21.059829) "></path>
                </g>
            </g>
        </g>
    </g>
</svg>