<?xml version="1.0" encoding="UTF-8"?>
<svg width="40px" height="53px" viewBox="0 0 40 53" version="1.1" xmlns="http://www.w3.org/2000/svg" xmlns:xlink="http://www.w3.org/1999/xlink">
    <title>logo</title>
    <defs>
        <linearGradient x1="82.0749734%" y1="39.3293019%" x2="50%" y2="52.4944082%" id="linearGradient-1">
            <stop stop-color="#1E5498" offset="0%"></stop>
            <stop stop-color="#29B4DB" offset="100%"></stop>
        </linearGradient>
        <linearGradient x1="82.0749734%" y1="37.0231056%" x2="50%" y2="53.0335102%" id="linearGradient-2">
            <stop stop-color="#1E5498" offset="0%"></stop>
            <stop stop-color="#29B4DB" offset="100%"></stop>
        </linearGradient>
        <linearGradient x1="5.30868318%" y1="28.3333718%" x2="95.5120119%" y2="66.7795346%" id="linearGradient-3">
            <stop stop-color="#203DD2" offset="0%"></stop>
            <stop stop-color="#29B4DB" offset="100%"></stop>
        </linearGradient>
        <linearGradient x1="5.30868318%" y1="32.4290679%" x2="95.5120119%" y2="63.6076578%" id="linearGradient-4">
            <stop stop-color="#203DD2" offset="0%"></stop>
            <stop stop-color="#29B4DB" offset="100%"></stop>
        </linearGradient>
        <linearGradient x1="5.30868318%" y1="43.4484301%" x2="95.5120119%" y2="55.0738072%" id="linearGradient-5">
            <stop stop-color="#203DD2" offset="0%"></stop>
            <stop stop-color="#29B4DB" offset="100%"></stop>
        </linearGradient>
    </defs>
    <g id="页面-1" stroke="none" stroke-width="1" fill="none" fill-rule="evenodd">
        <g id="登录1" transform="translate(-966.000000, -140.000000)">
            <g id="编组-16" transform="translate(966.000000, 140.000000)">
                <path d="M23.7770421,18.3333333 C26.0436734,20.9949923 26.8034798,23.0799073 26.0564614,24.5880782 C24.9359338,26.8503347 22.1787754,28.3318946 19.450813,28.3318946 C17.6321714,28.3318946 20.5199395,29.3012092 28.1141173,31.2398383 C30.7587037,30.7902173 32.7072449,29.8209028 33.9597409,28.3318946 C35.2122368,26.8428865 36.0509052,24.1163881 36.4757461,20.1523995 L23.7770421,18.3333333 Z" id="路径-4" fill="url(#linearGradient-1)"></path>
                <path d="M27.6997461,36.4910506 C29.4686955,38.6612779 29.979661,40.500477 29.2326426,42.008648 C28.112115,44.2709044 26.7903686,46.3832057 24.0624062,46.3832057 C22.2437646,46.3832057 24.7964935,47.3525202 31.7205928,49.2911494 C34.2353722,48.5216816 36.1190099,47.3924436 37.3715058,45.9034355 C38.6240017,44.4144273 39.2601198,41.8446358 39.27986,38.194061 L27.6997461,36.4910506 Z" id="路径-4备份" fill="url(#linearGradient-2)"></path>
                <path d="M2.21688893,2.07241631e-14 C3.19882146,2.60281394 4.49602649,4.19395898 6.10850404,4.77343511 C7.72098158,5.35291125 15.9130075,7.42068345 30.6845817,10.9767517 C36.0548716,13.0335678 38.7400166,16.0397272 38.7400166,19.9952299 C38.7400166,23.9507325 36.6218166,27.1135128 32.3854165,29.4835705 C34.3810784,26.3927396 34.6848952,24.1008602 33.2968669,22.6079322 C31.9088386,21.1150042 29.3799589,19.8719265 25.7102278,18.878699 C14.1541876,16.3282429 7.24392083,14.7070291 4.97942755,14.0150575 C1.58268761,12.9771002 0.161609402,9.77721844 0.161609402,6.28810632 C0.161609402,3.96203158 0.846702579,1.86599614 2.21688893,2.07241631e-14 Z" id="路径-2" fill="url(#linearGradient-3)"></path>
                <path d="M2.21688893,18.3333333 C3.19882146,20.9361473 4.49602649,22.5272923 6.10850404,23.1067684 C7.72098158,23.6862446 16.2393558,25.7645513 31.6636265,29.3416886 C37.2221009,31.1145027 40.0013381,33.978661 40.0013381,37.9341637 C40.0013381,41.8896664 39.1709874,44.4957709 37.510286,45.7524771 C38.1903572,43.9196765 37.8363786,42.2568122 36.4483503,40.7638842 C35.060322,39.2709562 31.4492994,37.9568527 25.6152826,36.8215739 C14.1225392,34.5314234 7.24392083,33.0403624 4.97942755,32.3483909 C1.58268761,31.3104335 0.161609402,28.1105518 0.161609402,24.6214397 C0.161609402,22.2953649 0.846702579,20.1993295 2.21688893,18.3333333 Z" id="路径-2备份" fill="url(#linearGradient-4)"></path>
                <path d="M2.27618404,36.4910506 C2.27618404,36.4910506 -2.04723563,42.0005348 1.6377885,47.4087583 C4.09447126,51.0142406 11.8690414,52.6044574 24.9614988,52.1794087 C30.6778692,51.7249216 34.9044143,49.5403557 37.6411342,45.6257109 C37.6114232,45.5669177 37.5896302,45.5482847 37.5757551,45.5698117 C37.3408146,45.9343215 37.1066453,46.152134 36.6713788,46.2821369 C32.8577919,47.4211577 28.113047,46.4757371 24.9614988,46.1243218 C19.803049,45.5491257 5.82212061,42.2838884 2.27618404,36.4910506 Z" id="路径-3" fill="url(#linearGradient-5)"></path>
            </g>
        </g>
    </g>
</svg>